<?xml version="1.0" encoding="UTF-8"?>
<!DOCTYPE svg PUBLIC "-//W3C//DTD SVG 1.1//EN" "http://www.w3.org/Graphics/SVG/1.1/DTD/svg11.dtd">
<svg xmlns="http://www.w3.org/2000/svg" version="1.1" width="300px" height="350px" style="shape-rendering:geometricPrecision; text-rendering:geometricPrecision; image-rendering:optimizeQuality; fill-rule:evenodd; clip-rule:evenodd" xmlns:xlink="http://www.w3.org/1999/xlink">
<g><path style="opacity:0.035" fill="#e3e3e3" d="M 235.5,154.5 C 235.5,155.167 235.5,155.833 235.5,156.5C 234.461,154.469 232.795,153.136 230.5,152.5C 228.167,151.833 225.833,151.167 223.5,150.5C 226.787,146.041 230.287,141.708 234,137.5C 235.257,135.487 236.091,133.321 236.5,131C 232.606,123.222 227.94,115.889 222.5,109C 227.975,111.413 233.309,114.413 238.5,118C 242.421,118.959 245.588,117.792 248,114.5C 249.008,108.492 249.675,102.492 250,96.5C 236.435,87.272 222.601,78.4387 208.5,70C 207.333,68.8333 206.167,67.6667 205,66.5C 204.918,61.4945 204.918,56.4945 205,51.5C 195.5,45.3333 186,39.1667 176.5,33C 174.5,32.3333 172.5,32.3333 170.5,33C 168.833,34.6667 167.167,36.3333 165.5,38C 163.305,39.373 160.971,39.7063 158.5,39C 145.5,30.6667 132.5,22.3333 119.5,14C 116.634,12.5432 113.634,12.2099 110.5,13C 106.241,16.3811 102.074,19.8811 98,23.5C 97.0701,26.85 97.9035,29.6833 100.5,32C 109.657,37.6702 118.657,43.5035 127.5,49.5C 116.482,59.6853 105.316,69.6853 94,79.5C 92.7127,90.0688 92.046,100.735 92,111.5C 82.6667,120.833 73.3333,130.167 64,139.5C 62.6751,144.843 64.1751,149.176 68.5,152.5C 66.2921,153.023 64.7921,154.356 64,156.5C 63.3333,160.167 63.3333,163.833 64,167.5C 68.0909,173.347 72.4242,179.013 77,184.5C 81.1478,224.125 84.8144,263.792 88,303.5C 88.6529,306.139 89.8196,308.473 91.5,310.5C 90.8333,310.5 90.1667,310.5 89.5,310.5C 86.5725,307.887 85.5725,304.72 86.5,301C 84.3157,297.352 83.9823,293.519 85.5,289.5C 83.42,286.121 83.0867,282.621 84.5,279C 83.8742,278.25 83.3742,277.416 83,276.5C 82.62,271.653 82.12,266.82 81.5,262C 82.3996,259.589 82.233,257.422 81,255.5C 80.231,252.901 80.3977,250.401 81.5,248C 79.8989,244.733 79.0655,241.233 79,237.5C 78.2334,233.442 78.4001,229.442 79.5,225.5C 78.2606,223.689 77.5939,221.689 77.5,219.5C 76.6071,214.484 76.6071,209.317 77.5,204C 75.3792,200.826 75.0458,197.493 76.5,194C 74.9337,191.07 74.1004,187.903 74,184.5C 68.8553,178.694 64.5219,172.361 61,165.5C 60.5884,160.479 61.7551,155.813 64.5,151.5C 60.4347,147.773 59.6014,143.44 62,138.5C 71.3333,129.167 80.6667,119.833 90,110.5C 90.3333,100.833 90.6667,91.1667 91,81.5C 92,79.8333 93,78.1667 94,76.5C 104.315,67.6858 114.482,58.6858 124.5,49.5C 115.491,43.3369 106.325,37.3369 97,31.5C 94.1027,28.0334 94.1027,24.7 97,21.5C 102.464,16.2494 108.464,12.5827 115,10.5C 130.256,18.9659 145.256,27.9659 160,37.5C 161.734,36.7511 163.567,36.2511 165.5,36C 167.984,32.3574 171.15,30.5241 175,30.5C 185.083,36.7923 195.25,42.959 205.5,49C 206.905,50.9767 207.905,53.1434 208.5,55.5C 207.485,59.1311 207.319,62.7978 208,66.5C 221.579,75.7077 235.412,84.5411 249.5,93C 251.041,94.5793 252.208,96.4127 253,98.5C 253.53,106.219 251.364,113.052 246.5,119C 244.863,119.601 243.197,120.101 241.5,120.5C 237.31,119.155 233.476,117.155 230,114.5C 229.833,114.833 229.667,115.167 229.5,115.5C 233.567,120.405 236.567,125.905 238.5,132C 235.872,138.14 232.205,143.64 227.5,148.5C 230.593,150.034 233.26,152.034 235.5,154.5 Z M 147.5,62.5 C 148.167,62.5 148.833,62.5 149.5,62.5C 149.973,63.9063 150.973,64.573 152.5,64.5C 152.973,65.9063 153.973,66.573 155.5,66.5C 155.842,67.3382 156.508,67.6716 157.5,67.5C 157.973,68.9063 158.973,69.573 160.5,69.5C 161.899,70.8897 163.566,71.8897 165.5,72.5C 165.973,73.9063 166.973,74.573 168.5,74.5C 169.899,75.8897 171.566,76.8897 173.5,77.5C 173.973,78.9063 174.973,79.573 176.5,79.5C 177.899,80.8897 179.566,81.8897 181.5,82.5C 181.973,83.9063 182.973,84.573 184.5,84.5C 185.899,85.8897 187.566,86.8897 189.5,87.5C 189.973,88.9063 190.973,89.573 192.5,89.5C 196.658,92.4143 200.991,95.0809 205.5,97.5C 192.323,98.7014 178.989,98.7014 165.5,97.5C 165.666,91.4908 165.499,85.4908 165,79.5C 158.663,74.3293 152.83,68.6626 147.5,62.5 Z"/></g>
<g><path style="opacity:0.999" fill="#080807" d="M 223.5,150.5 C 222.662,150.842 222.328,151.508 222.5,152.5C 220.5,152.5 218.5,152.5 216.5,152.5C 216.343,151.127 216.51,149.793 217,148.5C 220.5,144.333 224,140.167 227.5,136C 219.812,135.169 212.145,135.335 204.5,136.5C 202.425,141.724 200.758,147.058 199.5,152.5C 197.167,152.5 194.833,152.5 192.5,152.5C 194.012,147.452 195.679,142.452 197.5,137.5C 198.404,136.791 198.737,135.791 198.5,134.5C 195.167,134.5 191.833,134.5 188.5,134.5C 187.596,133.791 187.263,132.791 187.5,131.5C 187.611,130.883 187.944,130.383 188.5,130C 191.226,129.818 193.893,129.318 196.5,128.5C 192.167,121.833 187.833,115.167 183.5,108.5C 178.783,114.554 174.45,120.887 170.5,127.5C 169.957,127.56 169.624,127.893 169.5,128.5C 173.107,129.489 176.774,129.823 180.5,129.5C 181.167,129.5 181.5,129.833 181.5,130.5C 181.714,132.144 181.38,133.644 180.5,135C 176.459,135.173 172.459,135.673 168.5,136.5C 170.575,141.724 172.242,147.058 173.5,152.5C 171.167,152.5 168.833,152.5 166.5,152.5C 165.437,146.647 163.771,140.98 161.5,135.5C 156.985,134.188 152.318,134.188 147.5,135.5C 147.624,136.107 147.957,136.44 148.5,136.5C 152.891,140.016 153.558,144.182 150.5,149C 150.978,150.303 151.645,151.469 152.5,152.5C 147.833,152.5 143.167,152.5 138.5,152.5C 139.833,150.5 141.5,148.833 143.5,147.5C 144.043,147.44 144.376,147.107 144.5,146.5C 138.346,145.183 132.346,145.183 126.5,146.5C 124.833,148.833 122.833,150.833 120.5,152.5C 117.833,152.5 115.167,152.5 112.5,152.5C 115.144,149.52 117.811,146.52 120.5,143.5C 116.5,138.833 112.167,134.5 107.5,130.5C 102.833,134.5 98.5,138.833 94.5,143.5C 97.8273,146.161 100.827,149.161 103.5,152.5C 100.5,152.5 97.5,152.5 94.5,152.5C 91.6299,147.096 87.1299,145.096 81,146.5C 78.1667,146.833 75.3333,147.167 72.5,147.5C 73.8569,149.186 75.1902,150.852 76.5,152.5C 73.8333,152.5 71.1667,152.5 68.5,152.5C 64.1751,149.176 62.6751,144.843 64,139.5C 73.3333,130.167 82.6667,120.833 92,111.5C 92.046,100.735 92.7127,90.0688 94,79.5C 105.316,69.6853 116.482,59.6853 127.5,49.5C 118.657,43.5035 109.657,37.6702 100.5,32C 97.9035,29.6833 97.0701,26.85 98,23.5C 102.074,19.8811 106.241,16.3811 110.5,13C 113.634,12.2099 116.634,12.5432 119.5,14C 132.5,22.3333 145.5,30.6667 158.5,39C 160.971,39.7063 163.305,39.373 165.5,38C 167.167,36.3333 168.833,34.6667 170.5,33C 172.5,32.3333 174.5,32.3333 176.5,33C 186,39.1667 195.5,45.3333 205,51.5C 204.918,56.4945 204.918,61.4945 205,66.5C 206.167,67.6667 207.333,68.8333 208.5,70C 222.601,78.4387 236.435,87.272 250,96.5C 249.675,102.492 249.008,108.492 248,114.5C 245.588,117.792 242.421,118.959 238.5,118C 233.309,114.413 227.975,111.413 222.5,109C 227.94,115.889 232.606,123.222 236.5,131C 236.091,133.321 235.257,135.487 234,137.5C 230.287,141.708 226.787,146.041 223.5,150.5 Z M 147.5,62.5 C 148.167,62.5 148.833,62.5 149.5,62.5C 149.973,63.9063 150.973,64.573 152.5,64.5C 152.973,65.9063 153.973,66.573 155.5,66.5C 155.842,67.3382 156.508,67.6716 157.5,67.5C 157.973,68.9063 158.973,69.573 160.5,69.5C 161.899,70.8897 163.566,71.8897 165.5,72.5C 165.973,73.9063 166.973,74.573 168.5,74.5C 169.899,75.8897 171.566,76.8897 173.5,77.5C 173.973,78.9063 174.973,79.573 176.5,79.5C 177.899,80.8897 179.566,81.8897 181.5,82.5C 181.973,83.9063 182.973,84.573 184.5,84.5C 185.899,85.8897 187.566,86.8897 189.5,87.5C 189.973,88.9063 190.973,89.573 192.5,89.5C 196.658,92.4143 200.991,95.0809 205.5,97.5C 192.323,98.7014 178.989,98.7014 165.5,97.5C 165.666,91.4908 165.499,85.4908 165,79.5C 158.663,74.3293 152.83,68.6626 147.5,62.5 Z"/></g>
<g><path style="opacity:0.404" fill="#7a7a7a" d="M 181.5,82.5 C 183.027,82.427 184.027,83.0937 184.5,84.5C 182.973,84.573 181.973,83.9063 181.5,82.5 Z"/></g>
<g><path style="opacity:1" fill="#f8f5c5" d="M 136.5,80.5 C 137.167,81.5 137.833,82.5 138.5,83.5C 138.918,86.4389 140.418,88.7722 143,90.5C 145.714,102.113 143.214,112.28 135.5,121C 134.833,121.667 134.167,121.667 133.5,121C 127.667,115.167 121.833,109.333 116,103.5C 115.333,99.1667 115.333,94.8333 116,90.5C 120.054,85.943 124.554,81.943 129.5,78.5C 131.357,81.2345 133.691,81.9011 136.5,80.5 Z"/></g>
<g><path style="opacity:0.435" fill="#787878" d="M 173.5,77.5 C 175.027,77.427 176.027,78.0937 176.5,79.5C 174.973,79.573 173.973,78.9063 173.5,77.5 Z"/></g>
<g><path style="opacity:0.463" fill="#767676" d="M 165.5,72.5 C 167.027,72.427 168.027,73.0937 168.5,74.5C 166.973,74.573 165.973,73.9063 165.5,72.5 Z"/></g>
<g><path style="opacity:0.494" fill="#747474" d="M 157.5,67.5 C 159.027,67.427 160.027,68.0937 160.5,69.5C 158.973,69.573 157.973,68.9063 157.5,67.5 Z"/></g>
<g><path style="opacity:1" fill="#b78f3b" d="M 125.5,57.5 C 126.488,62.6405 126.821,67.9738 126.5,73.5C 121.815,78.0194 116.982,82.3527 112,86.5C 107.6,85.3135 103.434,83.6469 99.5,81.5C 108.513,73.8178 117.18,65.8178 125.5,57.5 Z"/></g>
<g><path style="opacity:0.384" fill="#898989" d="M 152.5,64.5 C 154.027,64.427 155.027,65.0937 155.5,66.5C 153.973,66.573 152.973,65.9063 152.5,64.5 Z"/></g>
<g><path style="opacity:0.522" fill="#737373" d="M 149.5,62.5 C 151.027,62.427 152.027,63.0937 152.5,64.5C 150.973,64.573 149.973,63.9063 149.5,62.5 Z"/></g>
<g><path style="opacity:1" fill="#332810" d="M 125.5,57.5 C 125.56,56.9569 125.893,56.6236 126.5,56.5C 127.816,62.3204 127.816,67.9871 126.5,73.5C 126.821,67.9738 126.488,62.6405 125.5,57.5 Z"/></g>
<g><path style="opacity:1" fill="#f1c050" d="M 138.5,83.5 C 137.833,82.5 137.167,81.5 136.5,80.5C 136.082,77.5611 134.582,75.2278 132,73.5C 131.171,68.1357 131.337,62.8023 132.5,57.5C 141.5,65.5 150.5,73.5 159.5,81.5C 155.328,83.2465 151.162,84.9131 147,86.5C 145.225,85.7297 143.725,84.563 142.5,83C 141.072,82.4209 139.738,82.5876 138.5,83.5 Z"/></g>
<g><path style="opacity:0.498" fill="#7c7c7c" d="M 147.5,61.5 C 146.833,61.5 146.5,61.8333 146.5,62.5C 143.834,61.1579 141.501,59.3245 139.5,57C 142.532,57.6867 145.199,59.1867 147.5,61.5 Z"/></g>
<g><path style="opacity:0.373" fill="#7c7c7c" d="M 189.5,87.5 C 191.027,87.427 192.027,88.0937 192.5,89.5C 190.973,89.573 189.973,88.9063 189.5,87.5 Z"/></g>
<g><path style="opacity:1" fill="#d5cd64" d="M 97.5,87.5 C 101.453,88.7613 105.453,89.928 109.5,91C 110.435,93.3806 110.768,95.8806 110.5,98.5C 105.055,98.4246 100.888,100.758 98,105.5C 97.5005,99.5092 97.3338,93.5092 97.5,87.5 Z"/></g>
<g><path style="opacity:1" fill="#f5ed74" d="M 157.5,87.5 C 158.5,87.5 159.5,87.5 160.5,87.5C 160.5,91.1667 160.5,94.8333 160.5,98.5C 156.543,98.0084 152.877,98.6751 149.5,100.5C 148.513,97.2317 148.18,93.8984 148.5,90.5C 151.785,90.0719 154.785,89.0719 157.5,87.5 Z"/></g>
<g><path style="opacity:0.898" fill="#5e5e5e" d="M 165.5,97.5 C 178.989,98.7014 192.323,98.7014 205.5,97.5C 206.376,97.3691 207.043,97.7025 207.5,98.5C 200.5,98.8333 193.5,99.1667 186.5,99.5C 179.133,99.4971 172.133,98.8304 165.5,97.5 Z"/></g>
<g><path style="opacity:1" fill="#0e3530" d="M 176.5,106.5 C 170.5,105.167 164.5,105.167 158.5,106.5C 157.957,106.44 157.624,106.107 157.5,105.5C 164.167,104.167 170.833,104.167 177.5,105.5C 177.376,106.107 177.043,106.44 176.5,106.5 Z"/></g>
<g><path style="opacity:1" fill="#36c2b2" d="M 176.5,106.5 C 173.744,111.016 170.744,115.349 167.5,119.5C 164.117,115.447 161.117,111.114 158.5,106.5C 164.5,105.167 170.5,105.167 176.5,106.5 Z"/></g>
<g><path style="opacity:1" fill="#36c3b2" d="M 189.5,106.5 C 195.653,105.347 201.986,105.18 208.5,106C 205.376,110.414 202.376,114.914 199.5,119.5C 195.916,115.317 192.582,110.984 189.5,106.5 Z"/></g>
<g><path style="opacity:1" fill="#805856" d="M 112.5,108.5 C 111.511,113.975 111.178,119.642 111.5,125.5C 110.183,119.654 110.183,113.654 111.5,107.5C 112.107,107.624 112.44,107.957 112.5,108.5 Z"/></g>
<g><path style="opacity:1" fill="#4acebc" d="M 156.5,115.5 C 153.696,119.154 151.03,122.987 148.5,127C 145.964,127.186 143.631,127.686 141.5,128.5C 140.522,128.189 139.855,127.522 139.5,126.5C 143.108,120.228 147.108,114.228 151.5,108.5C 153.409,110.649 155.076,112.982 156.5,115.5 Z"/></g>
<g><path style="opacity:1" fill="#b7eee8" d="M 187.5,131.5 C 185.379,131.675 183.379,131.341 181.5,130.5C 181.5,129.833 181.167,129.5 180.5,129.5C 177.167,128.833 173.833,128.167 170.5,127.5C 174.45,120.887 178.783,114.554 183.5,108.5C 187.833,115.167 192.167,121.833 196.5,128.5C 193.893,129.318 191.226,129.818 188.5,130C 187.944,130.383 187.611,130.883 187.5,131.5 Z"/></g>
<g><path style="opacity:1" fill="#53e6d3" d="M 227.5,127.5 C 220.018,128.492 212.352,128.825 204.5,128.5C 203.402,127.399 203.235,126.066 204,124.5C 207.303,119.031 210.803,113.698 214.5,108.5C 219.217,114.554 223.55,120.887 227.5,127.5 Z"/></g>
<g><path style="opacity:1" fill="#cb7a76" d="M 103.5,108.5 C 104.468,110.607 104.802,112.941 104.5,115.5C 95.8052,123.194 87.8052,131.528 80.5,140.5C 77.4816,140.665 74.4816,140.498 71.5,140C 82.0349,129.298 92.7016,118.798 103.5,108.5 Z"/></g>
<g><path style="opacity:1" fill="#e8a09c" d="M 112.5,108.5 C 117.63,114.131 122.964,119.631 128.5,125C 130.402,126.651 132.402,126.984 134.5,126C 136.614,127.498 137.114,129.331 136,131.5C 137.728,134.33 139.895,136.663 142.5,138.5C 137.36,139.488 132.026,139.821 126.5,139.5C 121.5,134.833 116.5,130.167 111.5,125.5C 111.178,119.642 111.511,113.975 112.5,108.5 Z"/></g>
<g><path style="opacity:1" fill="#633b3a" d="M 103.5,108.5 C 103.56,107.957 103.893,107.624 104.5,107.5C 105.816,113.32 105.816,118.987 104.5,124.5C 104.5,121.5 104.5,118.5 104.5,115.5C 104.802,112.941 104.468,110.607 103.5,108.5 Z"/></g>
<g><path style="opacity:1" fill="#53e6d3" d="M 156.5,115.5 C 159.072,118.969 161.406,122.636 163.5,126.5C 163.291,127.086 162.957,127.586 162.5,128C 155.508,128.5 148.508,128.666 141.5,128.5C 143.631,127.686 145.964,127.186 148.5,127C 151.03,122.987 153.696,119.154 156.5,115.5 Z"/></g>
<g><path style="opacity:1" fill="#e18782" d="M 104.5,115.5 C 104.5,118.5 104.5,121.5 104.5,124.5C 99.7031,129.798 94.7031,134.965 89.5,140C 86.5184,140.498 83.5184,140.665 80.5,140.5C 87.8052,131.528 95.8052,123.194 104.5,115.5 Z"/></g>
<g><path style="opacity:1" fill="#597371" d="M 170.5,127.5 C 173.833,128.167 177.167,128.833 180.5,129.5C 176.774,129.823 173.107,129.489 169.5,128.5C 169.624,127.893 169.957,127.56 170.5,127.5 Z"/></g>
<g><path style="opacity:1" fill="#276b62" d="M 227.5,127.5 C 228.043,127.56 228.376,127.893 228.5,128.5C 220.343,129.82 212.343,129.82 204.5,128.5C 212.352,128.825 220.018,128.492 227.5,127.5 Z"/></g>
<g><path style="opacity:1" fill="#be6060" d="M 112.5,152.5 C 109.5,152.5 106.5,152.5 103.5,152.5C 100.827,149.161 97.8273,146.161 94.5,143.5C 98.5,138.833 102.833,134.5 107.5,130.5C 112.167,134.5 116.5,138.833 120.5,143.5C 117.811,146.52 115.144,149.52 112.5,152.5 Z"/></g>
<g><path style="opacity:1" fill="#55e6d3" d="M 181.5,130.5 C 183.379,131.341 185.379,131.675 187.5,131.5C 187.263,132.791 187.596,133.791 188.5,134.5C 191.797,134.89 194.797,135.89 197.5,137.5C 195.679,142.452 194.012,147.452 192.5,152.5C 186.167,152.5 179.833,152.5 173.5,152.5C 172.242,147.058 170.575,141.724 168.5,136.5C 172.459,135.673 176.459,135.173 180.5,135C 181.38,133.644 181.714,132.144 181.5,130.5 Z"/></g>
<g><path style="opacity:1" fill="#113c36" d="M 161.5,135.5 C 156.968,135.182 152.634,135.515 148.5,136.5C 147.957,136.44 147.624,136.107 147.5,135.5C 152.318,134.188 156.985,134.188 161.5,135.5 Z"/></g>
<g><path style="opacity:1" fill="#1d504a" d="M 188.5,134.5 C 191.833,134.5 195.167,134.5 198.5,134.5C 198.737,135.791 198.404,136.791 197.5,137.5C 194.797,135.89 191.797,134.89 188.5,134.5 Z"/></g>
<g><path style="opacity:1" fill="#35bbab" d="M 148.5,136.5 C 152.634,135.515 156.968,135.182 161.5,135.5C 163.771,140.98 165.437,146.647 166.5,152.5C 161.833,152.5 157.167,152.5 152.5,152.5C 151.645,151.469 150.978,150.303 150.5,149C 153.558,144.182 152.891,140.016 148.5,136.5 Z"/></g>
<g><path style="opacity:1" fill="#37c1b0" d="M 216.5,152.5 C 210.833,152.5 205.167,152.5 199.5,152.5C 200.758,147.058 202.425,141.724 204.5,136.5C 212.145,135.335 219.812,135.169 227.5,136C 224,140.167 220.5,144.333 217,148.5C 216.51,149.793 216.343,151.127 216.5,152.5 Z"/></g>
<g><path style="opacity:1" fill="#aa7674" d="M 142.5,138.5 C 143.043,138.56 143.376,138.893 143.5,139.5C 137.68,140.816 132.013,140.816 126.5,139.5C 132.026,139.821 137.36,139.488 142.5,138.5 Z"/></g>
<g><path style="opacity:1" fill="#492c29" d="M 126.5,146.5 C 132.346,145.183 138.346,145.183 144.5,146.5C 144.376,147.107 144.043,147.44 143.5,147.5C 138.025,146.511 132.358,146.178 126.5,146.5 Z"/></g>
<g><path style="opacity:1" fill="#df9c98" d="M 94.5,152.5 C 88.5,152.5 82.5,152.5 76.5,152.5C 75.1902,150.852 73.8569,149.186 72.5,147.5C 75.3333,147.167 78.1667,146.833 81,146.5C 87.1299,145.096 91.6299,147.096 94.5,152.5 Z"/></g>
<g><path style="opacity:1" fill="#e08984" d="M 126.5,146.5 C 132.358,146.178 138.025,146.511 143.5,147.5C 141.5,148.833 139.833,150.5 138.5,152.5C 132.5,152.5 126.5,152.5 120.5,152.5C 122.833,150.833 124.833,148.833 126.5,146.5 Z"/></g>
<g><path style="opacity:0.529" fill="#939393" d="M 223.5,150.5 C 225.833,151.167 228.167,151.833 230.5,152.5C 227.833,152.5 225.167,152.5 222.5,152.5C 222.328,151.508 222.662,150.842 223.5,150.5 Z"/></g>
<g><path style="opacity:1" fill="#020202" d="M 68.5,152.5 C 71.1667,152.5 73.8333,152.5 76.5,152.5C 82.5,152.5 88.5,152.5 94.5,152.5C 97.5,152.5 100.5,152.5 103.5,152.5C 106.5,152.5 109.5,152.5 112.5,152.5C 115.167,152.5 117.833,152.5 120.5,152.5C 126.5,152.5 132.5,152.5 138.5,152.5C 143.167,152.5 147.833,152.5 152.5,152.5C 157.167,152.5 161.833,152.5 166.5,152.5C 168.833,152.5 171.167,152.5 173.5,152.5C 179.833,152.5 186.167,152.5 192.5,152.5C 194.833,152.5 197.167,152.5 199.5,152.5C 205.167,152.5 210.833,152.5 216.5,152.5C 218.5,152.5 220.5,152.5 222.5,152.5C 225.167,152.5 227.833,152.5 230.5,152.5C 232.795,153.136 234.461,154.469 235.5,156.5C 235.665,160.182 235.499,163.848 235,167.5C 231.394,173.707 227.061,179.373 222,184.5C 217.804,224.455 214.138,264.455 211,304.5C 209.302,308.957 206.469,312.29 202.5,314.5C 166.832,314.667 131.165,314.5 95.5,314C 93.9069,313.051 92.5736,311.885 91.5,310.5C 89.8196,308.473 88.6529,306.139 88,303.5C 84.8144,263.792 81.1478,224.125 77,184.5C 72.4242,179.013 68.0909,173.347 64,167.5C 63.3333,163.833 63.3333,160.167 64,156.5C 64.7921,154.356 66.2921,153.023 68.5,152.5 Z"/></g>
<g><path style="opacity:0.059" fill="#e8e8e8" d="M 235.5,154.5 C 238.376,158.149 238.709,161.982 236.5,166C 236.833,166.333 237.167,166.667 237.5,167C 234.438,172.73 230.604,177.897 226,182.5C 225.202,186.486 224.035,190.319 222.5,194C 223.571,200.781 222.904,207.448 220.5,214C 221.994,221.565 221.327,228.899 218.5,236C 219.937,243.19 219.271,250.19 216.5,257C 217.429,262.154 217.429,267.154 216.5,272C 214.858,275.881 214.525,280.048 215.5,284.5C 215.613,293.625 213.78,302.292 210,310.5C 208.549,312.464 206.716,313.797 204.5,314.5C 203.833,314.5 203.167,314.5 202.5,314.5C 206.469,312.29 209.302,308.957 211,304.5C 214.138,264.455 217.804,224.455 222,184.5C 227.061,179.373 231.394,173.707 235,167.5C 235.499,163.848 235.665,160.182 235.5,156.5C 235.5,155.833 235.5,155.167 235.5,154.5 Z"/></g>
<g><path style="opacity:1" fill="#f7f7f7" d="M 137.5,186.5 C 146.276,186.059 154.942,186.559 163.5,188C 167.377,193.585 170.877,199.418 174,205.5C 174.667,206.833 174.667,208.167 174,209.5C 170.707,211.896 167.207,213.896 163.5,215.5C 162.558,215.392 161.725,215.059 161,214.5C 159.213,210.423 157.046,206.59 154.5,203C 151.118,202.176 147.784,202.343 144.5,203.5C 142.949,205.884 141.615,208.384 140.5,211C 141.076,212.714 142.243,213.881 144,214.5C 144.743,216.441 144.576,218.274 143.5,220C 136.818,223.097 129.818,224.43 122.5,224C 119.23,217.547 117.73,210.714 118,203.5C 118.674,202.422 119.674,201.755 121,201.5C 122.909,202.156 124.742,202.656 126.5,203C 129.583,196.967 133.25,191.467 137.5,186.5 Z"/></g>
<g><path style="opacity:1" fill="#f5f5f5" d="M 172.5,218.5 C 178.962,219.394 185.295,220.894 191.5,223C 193.41,223.408 194.41,224.575 194.5,226.5C 193.559,229.108 191.892,231.108 189.5,232.5C 193.163,237.66 196.163,243.16 198.5,249C 195.03,257.141 190.696,264.808 185.5,272C 177.167,272.667 168.833,272.667 160.5,272C 160,271.5 159.5,271 159,270.5C 158.333,266.5 158.333,262.5 159,258.5C 159.5,258 160,257.5 160.5,257C 165.833,256.667 171.167,256.333 176.5,256C 182.039,250.335 181.539,245.169 175,240.5C 168.445,243.956 165.778,241.956 167,234.5C 168.232,228.878 170.065,223.544 172.5,218.5 Z"/></g>
<g><path style="opacity:1" fill="#f7f7f7" d="M 111.5,228.5 C 116.478,229.235 120.978,231.235 125,234.5C 123.628,239.911 121.128,244.911 117.5,249.5C 118.833,251.5 120.167,253.5 121.5,255.5C 126.12,256.493 130.786,256.827 135.5,256.5C 134.671,251.499 136.671,249.332 141.5,250C 147.144,253.802 151.477,258.636 154.5,264.5C 154.333,265.5 154.167,266.5 154,267.5C 150.167,271.333 146.333,275.167 142.5,279C 136.839,280.492 134.506,278.325 135.5,272.5C 128.159,272.666 120.826,272.5 113.5,272C 109.541,265.917 105.708,259.751 102,253.5C 100.699,251.635 100.365,249.635 101,247.5C 104.524,241.112 108.024,234.779 111.5,228.5 Z"/></g>
<g><path style="opacity:0.029" fill="#ececec" d="M 89.5,310.5 C 90.1667,310.5 90.8333,310.5 91.5,310.5C 92.5736,311.885 93.9069,313.051 95.5,314C 131.165,314.5 166.832,314.667 202.5,314.5C 203.167,314.5 203.833,314.5 204.5,314.5C 203.158,315.793 201.491,316.626 199.5,317C 166.167,317.667 132.833,317.667 99.5,317C 95.2803,316.065 91.947,313.899 89.5,310.5 Z"/></g>
</svg>
